<svg width="110" height="112" viewBox="0 0 110 112" fill="none" xmlns="http://www.w3.org/2000/svg">
<g id="square-instagram 1">
<path id="Vector" d="M48.2232 47.8859C46.9882 48.5552 45.9279 49.415 45.1028 50.4164C44.2778 51.4177 43.7042 52.541 43.4147 53.722C42.8301 56.1073 43.4385 58.583 45.106 60.6047C46.7735 62.6263 49.3636 64.0283 52.3064 64.5021C55.2492 64.9759 58.3037 64.4828 60.798 63.1312C63.2922 61.7797 65.0219 59.6804 65.6065 57.2951C66.1911 54.9099 65.5827 52.4342 63.9152 50.4125C62.2477 48.3908 59.6576 46.9889 56.7148 46.5151C53.772 46.0413 50.7175 46.5344 48.2232 47.8859ZM78.3984 36.1297C77.2958 35.2359 75.9598 34.5313 74.4966 34.0672C70.6585 32.8469 62.2824 32.8984 56.875 32.95C56.0056 32.95 55.1998 32.9672 54.5 32.9672C53.8002 32.9672 52.9732 32.9672 52.0826 32.95C46.6752 32.8984 38.3415 32.8297 34.5033 34.0672C33.0402 34.5313 31.7254 35.2359 30.6016 36.1297C29.4777 37.0234 28.6295 38.1062 28.0569 39.2922C26.5513 42.4031 26.6362 49.2094 26.6786 53.5922C26.6786 54.2969 26.6998 54.95 26.6998 55.5C26.6998 56.05 26.6998 56.7031 26.6786 57.4078C26.6362 61.7906 26.5513 68.5969 28.0569 71.7078C28.6295 72.8937 29.4989 73.9594 30.6016 74.8703C31.7042 75.7813 33.0402 76.4688 34.5033 76.9328C38.3415 78.1531 46.7176 78.1016 52.125 78.05C52.9944 78.05 53.8002 78.0328 54.5 78.0328C55.1998 78.0328 56.0268 78.0328 56.9174 78.05C62.3248 78.1016 70.6585 78.1703 74.4966 76.9328C75.9598 76.4688 77.2746 75.7641 78.3984 74.8703C79.5223 73.9766 80.3705 72.8937 80.9431 71.7078C82.4699 68.6141 82.385 61.8422 82.3214 57.4422C82.3214 56.7203 82.3002 56.05 82.3002 55.4828C82.3002 54.9156 82.3002 54.2625 82.3214 53.5234C82.385 49.1406 82.4699 42.3688 80.9431 39.2578C80.3705 38.0719 79.5011 37.0063 78.3984 36.0953V36.1297ZM64.1696 43.7781C68.0052 45.8568 70.6649 49.0852 71.5637 52.7533C72.4624 56.4214 71.5266 60.2287 68.9621 63.3375C67.6922 64.8768 66.0607 66.1984 64.1608 67.2267C62.2608 68.255 60.1296 68.9699 57.8887 69.3306C53.3632 70.059 48.6659 69.3005 44.8304 67.2219C40.9948 65.1455 38.3339 61.9192 37.4332 58.2527C36.5325 54.5863 37.4656 50.7799 40.0273 47.6711C42.5891 44.5623 46.5696 42.4056 51.0932 41.6755C55.6167 40.9454 60.3129 41.7018 64.1484 43.7781H64.1696ZM70.3616 43.5547C69.7042 43.1938 69.1741 42.6781 68.856 42.0766C68.5379 41.475 68.4743 40.8219 68.6228 40.1688C68.7712 39.5156 69.1741 38.9484 69.7254 38.4844C70.2768 38.0203 71.019 37.7109 71.8036 37.5906C72.5882 37.4703 73.4152 37.5219 74.1574 37.7797C74.8996 38.0375 75.5357 38.45 75.981 38.9828C76.4263 39.5156 76.6596 40.1516 76.6596 40.8047C76.6596 41.2344 76.5536 41.6641 76.3627 42.0594C76.1719 42.4547 75.8538 42.8156 75.4933 43.125C75.1328 43.4344 74.6663 43.675 74.1786 43.8469C73.6908 44.0187 73.1607 44.1047 72.6306 44.1047C71.8248 44.1047 71.0402 43.9156 70.3828 43.5547H70.3616ZM102 28C102 21.9328 95.9141 17 88.4286 17H20.5714C13.0859 17 7 21.9328 7 28V83C7 89.0672 13.0859 94 20.5714 94H88.4286C95.9141 94 102 89.0672 102 83V28ZM82.7031 78.3594C78.7377 81.5734 73.9241 82.5875 68.4955 82.8109C62.8973 83.0687 46.1027 83.0687 40.5045 82.8109C35.0759 82.5875 30.2623 81.5734 26.2969 78.3594C22.3315 75.1453 21.0804 71.2438 20.8259 66.8438C20.5078 62.3063 20.5078 48.6937 20.8259 44.1562C21.1016 39.7562 22.3315 35.8547 26.2969 32.6406C30.2623 29.4266 35.0971 28.4125 40.5045 28.2062C46.1027 27.9484 62.8973 27.9484 68.4955 28.2062C73.9241 28.4297 78.7377 29.4266 82.7031 32.6406C86.6685 35.8547 87.9196 39.7562 88.1741 44.1562C88.4922 48.6766 88.4922 62.2719 88.1741 66.8266C87.8984 71.2266 86.6685 75.1281 82.7031 78.3422V78.3594Z" fill="#FF00EA"/>
</g>
</svg>
