<svg width="106" height="100" viewBox="0 0 106 100" fill="none" xmlns="http://www.w3.org/2000/svg">
<g id="telegram 1">
<path id="Vector" d="M53.75 4.54822C26.2671 4.54822 4 24.6893 4 49.5482C4 74.4071 26.2671 94.5482 53.75 94.5482C81.2329 94.5482 103.5 74.4071 103.5 49.5482C103.5 24.6893 81.2329 4.54822 53.75 4.54822ZM76.8196 35.1591C76.0773 42.272 72.8275 59.5462 71.1826 67.5119C70.4804 70.8869 69.1163 72.0119 67.7923 72.1208C64.9036 72.3567 62.717 70.397 59.9086 68.7277C55.5354 66.1329 53.0479 64.518 48.8151 61.9777C43.9003 59.0563 47.0899 57.4414 49.8783 54.8103C50.6206 54.1208 63.3389 43.651 63.5796 42.7075C63.6198 42.5805 63.6398 42.145 63.3389 41.9091C63.038 41.6732 62.6167 41.7639 62.3158 41.8184C61.8745 41.9031 54.8801 46.0825 41.3326 54.3567C39.3533 55.5906 37.5545 56.1893 35.9363 56.1531C34.1509 56.1168 30.7406 55.2458 28.1929 54.5018C25.0836 53.5946 22.5961 53.1047 22.8167 51.5442C22.9237 50.7337 24.1608 49.9051 26.5279 49.0583C41.025 43.3486 50.6941 39.5805 55.5354 37.7539C69.3571 32.5643 72.2257 31.6571 74.0913 31.6208C74.5126 31.6208 75.4153 31.7115 76.0171 32.147C76.4099 32.4594 76.6602 32.8927 76.7193 33.3627C76.8277 33.9562 76.8614 34.5588 76.8196 35.1591Z" fill="#00E2E6"/>
</g>
</svg>
