<svg width="87" height="73" viewBox="0 0 87 73" fill="none" xmlns="http://www.w3.org/2000/svg">
<g id="phone-solid 1" clip-path="url(#clip0_2_76)">
<path id="Vector" d="M28.0201 3.50636C26.7117 0.854411 23.2623 -0.557112 19.9658 0.198552L5.0127 3.62042C2.05605 4.3048 0 6.55753 0 9.12394C0 44.3977 34.0863 72.9989 76.125 72.9989C79.1836 72.9989 81.8684 71.2737 82.684 68.7929L86.7621 56.246C87.6627 53.48 85.9805 50.5856 82.8199 49.4878L66.5074 43.7847C63.7377 42.8151 60.5262 43.4853 58.64 45.4386L51.7752 52.4677C39.8127 47.7198 30.1271 39.5929 24.4688 29.5554L32.8459 23.8095C35.1738 22.2126 35.9725 19.5321 34.817 17.2081L28.0201 3.52062V3.50636Z" fill="#00FF11"/>
</g>
<defs>
<clipPath id="clip0_2_76">
<rect width="87" height="73" fill="white"/>
</clipPath>
</defs>
</svg>
